<svg width="871" height="857" viewBox="0 0 871 857" fill="none" xmlns="http://www.w3.org/2000/svg">
<path d="M671.293 157C685.514 157 698.963 165.515 713.12 166.864C714.068 166.954 715.029 167 716 167H841.463C855.396 167 871 173.067 871 187V807C871 834.614 848.614 857 821 857H231C203.386 857 181 834.614 181 807V721C181 720.029 180.954 719.068 180.864 718.12C179.515 703.962 171 690.513 171 676.291V207C171 179.386 193.386 157 221 157H671.293Z" fill="#E7F8FE"/>
<path d="M690 142C690 142.971 690.046 143.932 690.136 144.88C691.485 159.037 700 172.486 700 186.707V650C700 677.614 677.614 700 650 700H191.01C178.4 700 166.363 693.296 153.808 692.13C152.883 692.044 151.947 692 151 692H50C22.3858 692 0 669.614 0 642V50C0 22.3858 22.3858 0 50 0H640C667.614 0 690 22.3858 690 50V142Z" fill="#E7F8FE"/>
</svg>
